<svg xmlns="http://www.w3.org/2000/svg"  viewBox="0 0 24 24" width="192px" height="192px"><path d="M 12.082031 3.0058594 C 11.889114 3.0012727 11.695056 3.0096251 11.501953 3.0332031 C 10.986254 3.0961704 10.475782 3.2602967 10 3.5351562 C 9.3745101 3.8965021 8.9421054 4.43376 8.6035156 5.0214844 L 8.5449219 4.9863281 L 2.5449219 14.986328 L 2.5722656 15.001953 C 2.2276282 15.627916 2 16.303046 2 17 C 2 17.972222 2.3186806 18.957881 3.0019531 19.726562 C 3.6852256 20.495244 4.7500003 21 6 21 C 7.2499997 21 8.3147744 20.495244 8.9980469 19.726562 C 9.1915042 19.508923 9.2916165 19.245279 9.4277344 18.998047 L 9.4550781 19.013672 L 12 14.773438 L 14.535156 19 C 14.536356 19.0021 14.537863 19.003759 14.539062 19.005859 C 15.639048 20.90425 18.098966 21.563072 20 20.464844 C 21.903261 19.366655 22.564282 16.903129 21.464844 15 L 21.458984 14.992188 L 15.464844 5 C 15.463644 4.9979 15.462137 4.9962306 15.460938 4.9941406 C 14.739335 3.748753 13.432455 3.0379659 12.082031 3.0058594 z M 12.142578 5 C 12.270343 5.0087778 12.396452 5.029513 12.519531 5.0625 C 13.01185 5.194448 13.453516 5.5166306 13.732422 6 L 13.736328 6.0078125 L 13.740234 6.0136719 L 19.732422 16 C 20.290984 16.966871 19.966739 18.17461 19 18.732422 C 18.033129 19.290984 16.82539 18.966739 16.267578 18 L 16.263672 17.992188 L 10.267578 8 C 9.7089157 7.0329545 10.032432 5.8265422 11 5.2675781 C 11.362577 5.0581175 11.759283 4.9736666 12.142578 5 z M 8.5117188 8.9277344 C 8.5243975 8.9507138 8.521972 8.9771781 8.5351562 9 L 8.5410156 9.0078125 L 10.833984 12.830078 L 9.4785156 15.089844 C 9.3336163 14.809755 9.2147208 14.517195 8.9980469 14.273438 C 8.3268415 13.51833 7.2819618 13.029149 6.0605469 13.011719 L 8.5117188 8.9277344 z M 6 15 C 6.7499995 15 7.1852261 15.245244 7.5019531 15.601562 C 7.8186802 15.957882 8 16.472222 8 17 C 8 17.527778 7.8186802 18.042119 7.5019531 18.398438 C 7.1852261 18.754756 6.7499995 19 6 19 C 5.2500005 19 4.8147739 18.754756 4.4980469 18.398438 C 4.1813198 18.042119 4 17.527778 4 17 C 4 16.486282 4.1831713 15.993578 4.484375 15.638672 L 4.5097656 15.597656 C 4.8258917 15.245741 5.2557166 15 6 15 z"/></svg>