<svg viewBox="0 0 1024 1176.463" xmlns="http://www.w3.org/2000/svg"><path d="M194.368 888.452v57.183h316.91v-57.183zm529.568-330.304v151.036l-68.3 39.07-68.298-39.07V558.906C532.98 585.3 496.17 640.083 496.17 703.464s36.81 118.165 90.217 144.14l.95.418v97.612h138.24v-97.652c54.33-26.404 91.114-81.172 91.114-144.532 0-63.997-37.527-119.23-91.777-144.89l-.974-.415zm-529.568-.84v273.92H439.78v-273.92zm685.923-59.504v442.432h35.27c42.097-.108 76.194-34.204 76.302-76.29V497.804zm-846.716 0v366.132c.102 42.085 34.18 76.177 76.25 76.3h35.32v-442.43zm272.96-110.088c7.626.01 14.52 3.134 19.48 8.17l.002.005c4.99 5.073 8.07 12.035 8.07 19.718 0 7.69-3.086 14.658-8.087 19.734l.002-.003c-4.95 5.038-11.834 8.16-19.45 8.16-7.62 0-14.512-3.128-19.458-8.17l-.004-.005c-4.988-5.07-8.068-12.033-8.068-19.714 0-7.676 3.076-14.635 8.064-19.71l-.004.005c4.954-5.04 11.838-8.17 19.452-8.188h.004zm-85.335 0c7.625.01 14.52 3.134 19.478 8.17l.003.005c4.99 5.073 8.07 12.035 8.07 19.718 0 7.69-3.085 14.658-8.086 19.734l.003-.003c-4.95 5.038-11.834 8.16-19.45 8.16-7.62 0-14.512-3.128-19.458-8.17l-.005-.005c-4.988-5.07-8.067-12.033-8.067-19.714 0-7.676 3.076-14.634 8.063-19.71l-.003.005c4.954-5.04 11.838-8.17 19.453-8.188h.004zm616.703-25.353h-.132c-1.815 0-3.598.146-5.335.426l.19-.026-21.713.08c-208.58.56-417.16-.32-625.74.4-17.395-2.52-31.75 17.435-28.632 35.31v90.535h712.275c-.64-35.51 1.8-71.26-1.36-106.61-4.077-11.794-15.087-20.113-28.04-20.113-.53 0-1.06.014-1.584.042l.074-.004zM379.2 79.643v66.062h270.842v-66.06zm276.08 134.603h68.66v-67.26l-68.66-68.62zm-281.318 0v1.4H305.34v-1.4h-137.8L32.138 345.808v143.04h113.008v-99.213c.056-21.047 17.103-38.093 38.145-38.147h658.855c21.04.07 38.08 17.108 38.15 38.142v99.176h110.128V345.808l-135.4-131.562H723.94v1.4h-68.66v-1.4zm0-135.88l-68.622 68.62v67.26h68.62z"/></svg>